<svg xmlns="http://www.w3.org/2000/svg" viewBox="0 0 159.1 55.3"><defs><style>.cls-1{fill:#58595b;}</style></defs><g id="Layer_2" data-name="Layer 2"><g id="Layer_1-2" data-name="Layer 1"><path class="cls-1" d="M21,14h3c.2,0,.3-.2.3-.4a.3.3,0,0,0-.3-.3H21c-.2,0-.4.1-.4.3A.4.4,0,0,0,21,14Zm1.5,26.4a1.6,1.6,0,0,0-1.6,1.5,1.6,1.6,0,0,0,1.6,1.6A1.6,1.6,0,0,0,24,41.9,1.5,1.5,0,0,0,22.5,40.4ZM14.8,39H30.2V16.3H14.8Zm49.3-7.4a3.1,3.1,0,0,0-2,.7,3.5,3.5,0,0,0-1.3,2.8v2.2a3.7,3.7,0,0,0,.9,2.5,3.3,3.3,0,0,0,2.3,1,3.2,3.2,0,0,0,2.6-1.3,5.9,5.9,0,0,0,.9-3.4,6.1,6.1,0,0,0-.8-3.2A3,3,0,0,0,64.1,31.6Zm53.9-.2a2.9,2.9,0,0,0-2.7,1.6,6.1,6.1,0,0,0-.8,3.2,6.2,6.2,0,0,0,.8,3.1,3,3,0,0,0,2.7,1.6,3,3,0,0,0,2.6-1.6,5.7,5.7,0,0,0,.9-3.2,5.9,5.9,0,0,0-.8-3.1A3,3,0,0,0,118,31.4Zm-39.3.2a3.1,3.1,0,0,0-2,.7,2.9,2.9,0,0,0-1.1,1.9,5.1,5.1,0,0,0-.2.9v2.2a3.7,3.7,0,0,0,.9,2.5,3.3,3.3,0,0,0,2.3,1,3.2,3.2,0,0,0,2.6-1.3,6,6,0,0,0,1-3.4,5.3,5.3,0,0,0-.9-3.2A3,3,0,0,0,78.7,31.6ZM48.2,26.8h-.1l-.9,3.5-1.5,4.8h4.9l-1.5-4.8A31,31,0,0,1,48.2,26.8Zm92.2,4.4a3.1,3.1,0,0,0-2.3,1.2,5,5,0,0,0-.9,2.3h6.2a4,4,0,0,0-.6-2.2A2.7,2.7,0,0,0,140.4,31.2ZM61.2,18.1V16.8c-1.2,0-2.4.2-2.4,1.3a1,1,0,0,0,1,1A1.5,1.5,0,0,0,61.2,18.1ZM45.1,13.8a12.1,12.1,0,0,1-.5-1.8h0c-.2.6-.3,1.2-.5,1.8l-.7,2.3h2.4ZM152.4,0H6.7A6.7,6.7,0,0,0,0,6.7V48.6a6.7,6.7,0,0,0,6.7,6.7H152.4a6.7,6.7,0,0,0,6.7-6.7V6.7A6.7,6.7,0,0,0,152.4,0Zm-9.2,13.1c2.2,0,2.9,1.9,2.9,3.4v.7h-4.6a1.9,1.9,0,0,0,2.1,1.8,9.5,9.5,0,0,0,1.9-.3l.2,1.1a5.4,5.4,0,0,1-2.4.5,3.3,3.3,0,0,1-3.5-3.5A3.4,3.4,0,0,1,143.2,13.1Zm-27.5.2v1h0a2.7,2.7,0,0,1,2.2-1.2c1.2,0,2.5.8,2.5,3v4h-1.8V16.3c0-1-.3-1.8-1.3-1.8a1.3,1.3,0,0,0-1.3,1.1.7.7,0,0,0-.1.5v4h-1.8V13.3Zm-18.2-.2c2.2,0,3,1.9,3,3.4s-.1.5-.1.7H95.8A1.9,1.9,0,0,0,97.9,19a8.4,8.4,0,0,0,1.9-.3l.3,1.1a5.4,5.4,0,0,1-2.4.5,3.3,3.3,0,0,1-3.5-3.5C94.2,14.9,95.3,13.1,97.5,13.1Zm-7.1-3h1.8v10H90.4ZM76.7,14.4a3.2,3.2,0,0,0-1.8.5l-.4-1.2a5.1,5.1,0,0,1,2.5-.6c2.2,0,2.8,1.4,2.8,2.9v2.5c0,.6.1,1.2.1,1.6H78.4v-.7h-.1a2.5,2.5,0,0,1-2,.9,2.1,2.1,0,0,1-2.2-2c0-1.8,1.6-2.7,4.1-2.6h0C78.1,15.1,77.9,14.4,76.7,14.4Zm-10.2-4c.6,0,.9.4.9,1a.8.8,0,0,1-.9.9.9.9,0,0,1-1-.9A.9.9,0,0,1,66.5,10.4Zm.8,2.9v6.8H65.6V13.3ZM43.5,10.7h2.2l3.1,9.4H46.9l-.8-2.7h-3l-.8,2.7H40.5ZM32,42.1a3,3,0,0,1-3,3H16a3,3,0,0,1-3.1-3V13.2a3.1,3.1,0,0,1,3.1-3H29a3.1,3.1,0,0,1,3,3Zm20.9.7-1.7-5.4h-6l-1.7,5.4h-3l5.9-18.5h3.7L56,42.8Zm.7-22.7H51.9l-2.6-6.8h1.9l1.1,3.5.5,1.7h0a10.9,10.9,0,0,1,.5-1.7l1.1-3.5h1.8Zm3.5-1.8c0-1.8,1.6-2.7,4.1-2.6h0c0-.5-.2-1.2-1.4-1.2a3.2,3.2,0,0,0-1.8.5l-.4-1.2a5.1,5.1,0,0,1,2.5-.6c2.2,0,2.8,1.4,2.8,2.9v2.5c0,.6.1,1.2.1,1.6H61.5l-.2-.7h0a2.5,2.5,0,0,1-2,.9A2.1,2.1,0,0,1,57.1,18.3Zm11.6,23a5.4,5.4,0,0,1-4.1,1.8,4,4,0,0,1-3.8-1.9v7h-3V33.9c0-1.5,0-2.9-.1-4.4h2.6l.2,2.1h.1A4.7,4.7,0,0,1,65,29.2a5,5,0,0,1,4,1.9A7.5,7.5,0,0,1,70.5,36,7.6,7.6,0,0,1,68.7,41.3Zm3.1-21.2H70v-10h1.8ZM83.3,41.3a5.2,5.2,0,0,1-4.1,1.8,4.1,4.1,0,0,1-3.8-1.9v7H72.5V33.9c0-1.5-.1-2.9-.1-4.4h2.5l.2,2.1h.1a5.2,5.2,0,0,1,8.4-.5A7.6,7.6,0,0,1,85.2,36,7.6,7.6,0,0,1,83.3,41.3Zm2-21a2.3,2.3,0,0,1-2.1-1.2h0v1H81.6v-10h1.8v4.1h0a2.6,2.6,0,0,1,2.2-1.1c1.7,0,2.9,1.4,2.9,3.5S86.9,20.3,85.3,20.3Zm14.9,21.2a7.7,7.7,0,0,1-5,1.6,8.5,8.5,0,0,1-4.8-1.2l.7-2.4a8.9,8.9,0,0,0,4.3,1.1,4.7,4.7,0,0,0,2.6-.7,2.6,2.6,0,0,0,.9-2.1,2.9,2.9,0,0,0-.8-1.9,7.9,7.9,0,0,0-2.5-1.4c-3.2-1.2-4.9-2.9-4.9-5.3a4.6,4.6,0,0,1,1.8-3.7A6.9,6.9,0,0,1,97,24.1a10.1,10.1,0,0,1,4.2.8l-.8,2.5a6.8,6.8,0,0,0-3.5-.9,3.7,3.7,0,0,0-2.5.8,2.4,2.4,0,0,0-.7,1.6,2.3,2.3,0,0,0,.9,1.9,8.3,8.3,0,0,0,2.6,1.4,8.8,8.8,0,0,1,3.5,2.2,4.5,4.5,0,0,1,1.2,3.2A5.1,5.1,0,0,1,100.2,41.5Zm10.4-9.8h-3.2v6.5c0,1.6.6,2.4,1.7,2.4h1.3v2.2a5,5,0,0,1-2.3.4,3.4,3.4,0,0,1-2.7-1.1c-.7-.7-1-1.9-1-3.6V31.7h-2V29.5h2V27.1l2.9-.9v3.3h3.2ZM109,20.3a3.4,3.4,0,0,1-3.5-3.5,3.4,3.4,0,0,1,3.6-3.7,3.3,3.3,0,0,1,3.4,3.5A3.4,3.4,0,0,1,109,20.3Zm13.8,20.8a6.6,6.6,0,0,1-4.9,2,6.3,6.3,0,0,1-4.7-1.9,7.5,7.5,0,0,1-1.7-4.9,7.2,7.2,0,0,1,1.8-5.1,6.3,6.3,0,0,1,4.8-2,6,6,0,0,1,4.7,2,6.4,6.4,0,0,1,1.7,4.8A7.7,7.7,0,0,1,122.8,41.1Zm3-27.8h1V12l1.7-.5v1.8h1.6v1.3h-1.6v3c0,.8.2,1.3.9,1.3h.7v1.3l-1.3.2a2,2,0,0,1-1.5-.6,3.1,3.1,0,0,1-.5-1.9V14.6h-1Zm7.6,18.8h-.9a2.6,2.6,0,0,0-2.4,1.2,4.2,4.2,0,0,0-.8,2.6v7h-2.9V33.7c0-1.6,0-2.9-.1-4.2h2.6V32h.1a6,6,0,0,1,1.4-2.1,4.4,4.4,0,0,1,2.2-.7h.7Zm.5-16.1v4.1h-1.8v-10h1.8v4.1h0a2.4,2.4,0,0,1,.9-.8,2,2,0,0,1,1.1-.3c1.2,0,2.4.8,2.4,3v4h-1.7V16.3c0-1-.4-1.8-1.3-1.8a1.5,1.5,0,0,0-1.4,1Zm12.2,20.9h-8.9a3.8,3.8,0,0,0,1.3,3,4.4,4.4,0,0,0,2.9.9,10.5,10.5,0,0,0,3.6-.6l.4,2a9.9,9.9,0,0,1-4.4.8,6.2,6.2,0,0,1-6.7-6.7,7.8,7.8,0,0,1,1.7-5,5.6,5.6,0,0,1,4.6-2.1,5,5,0,0,1,4.4,2.1,7.4,7.4,0,0,1,1.2,4.2C146.2,36,146.1,36.5,146.1,36.9ZM85,14.5a1.7,1.7,0,0,0-1.6,1.2v2A1.6,1.6,0,0,0,85,18.9c1,0,1.7-.8,1.7-2.2S86.1,14.5,85,14.5Zm12.4-.2c-1,0-1.5,1-1.6,1.7h3A1.4,1.4,0,0,0,97.4,14.3Zm11.7.1c-1.3,0-1.8,1.2-1.8,2.3S108,19,109,19s1.7-.9,1.7-2.3S110.2,14.4,109.1,14.4ZM75.7,18.1a1,1,0,0,0,1,1,1.5,1.5,0,0,0,1.4-1V16.8C76.9,16.8,75.7,17,75.7,18.1Zm67.4-3.8a1.7,1.7,0,0,0-1.6,1.7h3C144.5,15.4,144.2,14.3,143.1,14.3Z"/></g></g></svg>