<svg xmlns="http://www.w3.org/2000/svg" viewBox="0 0 161.1 57.3"><defs><style>.cls-1{fill:#58595b;}</style></defs><g id="Layer_2" data-name="Layer 2"><g id="Layer_1-2" data-name="Layer 1"><path class="cls-1" d="M22,15h3c.2,0,.3-.2.3-.4a.3.3,0,0,0-.3-.3H22c-.2,0-.4.1-.4.3A.4.4,0,0,0,22,15Zm1.5,26.4a1.6,1.6,0,0,0-1.6,1.5,1.6,1.6,0,0,0,1.6,1.6A1.6,1.6,0,0,0,25,42.9,1.5,1.5,0,0,0,23.5,41.4ZM15.8,40H31.2V17.3H15.8Zm49.3-7.4a3.1,3.1,0,0,0-2,.7,3.5,3.5,0,0,0-1.3,2.8v2.2a3.7,3.7,0,0,0,.9,2.5,3.3,3.3,0,0,0,2.3,1,3.2,3.2,0,0,0,2.6-1.3,5.9,5.9,0,0,0,.9-3.4,6.1,6.1,0,0,0-.8-3.2A3,3,0,0,0,65.1,32.6Zm53.9-.2a2.9,2.9,0,0,0-2.7,1.6,6.1,6.1,0,0,0-.8,3.2,6.2,6.2,0,0,0,.8,3.1,3,3,0,0,0,2.7,1.6,3,3,0,0,0,2.6-1.6,5.7,5.7,0,0,0,.9-3.2,5.9,5.9,0,0,0-.8-3.1A3,3,0,0,0,119,32.4Zm-39.3.2a3.1,3.1,0,0,0-2,.7,2.9,2.9,0,0,0-1.1,1.9,5.1,5.1,0,0,0-.2.9v2.2a3.7,3.7,0,0,0,.9,2.5,3.3,3.3,0,0,0,2.3,1,3.2,3.2,0,0,0,2.6-1.3,6,6,0,0,0,1-3.4,5.3,5.3,0,0,0-.9-3.2A3,3,0,0,0,79.7,32.6ZM49.2,27.8h-.1l-.9,3.5-1.5,4.8h4.9l-1.5-4.8A31,31,0,0,1,49.2,27.8Zm92.2,4.4a3.1,3.1,0,0,0-2.3,1.2,5,5,0,0,0-.9,2.3h6.2a4,4,0,0,0-.6-2.2A2.7,2.7,0,0,0,141.4,32.2ZM62.2,19.1V17.8c-1.2,0-2.4.2-2.4,1.3a1,1,0,0,0,1,1A1.5,1.5,0,0,0,62.2,19.1ZM46.1,14.8a12.1,12.1,0,0,1-.5-1.8h0c-.2.6-.3,1.2-.5,1.8l-.7,2.3h2.4Zm98.1-.7c2.2,0,2.9,1.9,2.9,3.4v.7h-4.6a1.9,1.9,0,0,0,2.1,1.8,9.5,9.5,0,0,0,1.9-.3l.2,1.1a5.4,5.4,0,0,1-2.4.5,3.3,3.3,0,0,1-3.5-3.5A3.4,3.4,0,0,1,144.2,14.1Zm-27.5.2v1h0a2.7,2.7,0,0,1,2.2-1.2c1.2,0,2.5.8,2.5,3v4h-1.8V17.3c0-1-.3-1.8-1.3-1.8a1.3,1.3,0,0,0-1.3,1.1.7.7,0,0,0-.1.5v4h-1.8V14.3Zm-18.2-.2c2.2,0,3,1.9,3,3.4s-.1.5-.1.7H96.8A1.9,1.9,0,0,0,98.9,20a8.4,8.4,0,0,0,1.9-.3l.3,1.1a5.4,5.4,0,0,1-2.4.5,3.3,3.3,0,0,1-3.5-3.5C95.2,15.9,96.3,14.1,98.5,14.1Zm-7.1-3h1.8v10H91.4ZM77.7,15.4a3.2,3.2,0,0,0-1.8.5l-.4-1.2a5.1,5.1,0,0,1,2.5-.6c2.2,0,2.8,1.4,2.8,2.9v2.5c0,.6.1,1.2.1,1.6H79.4v-.7h-.1a2.5,2.5,0,0,1-2,.9,2.1,2.1,0,0,1-2.2-2c0-1.8,1.6-2.7,4.1-2.6h0C79.1,16.1,78.9,15.4,77.7,15.4Zm-10.2-4c.6,0,.9.4.9,1a.8.8,0,0,1-.9.9.9.9,0,0,1-1-.9A.9.9,0,0,1,67.5,11.4Zm.8,2.9v6.8H66.6V14.3ZM44.5,11.7h2.2l3.1,9.4H47.9l-.8-2.7h-3l-.8,2.7H41.5ZM33,43.1a3,3,0,0,1-3,3H17a3,3,0,0,1-3.1-3V14.2a3.1,3.1,0,0,1,3.1-3H30a3.1,3.1,0,0,1,3,3Zm20.9.7-1.7-5.4h-6l-1.7,5.4h-3l5.9-18.5h3.7L57,43.8Zm.7-22.7H52.9l-2.6-6.8h1.9l1.1,3.5.5,1.7h0a10.9,10.9,0,0,1,.5-1.7l1.1-3.5h1.8Zm3.5-1.8c0-1.8,1.6-2.7,4.1-2.6h0c0-.5-.2-1.2-1.4-1.2a3.2,3.2,0,0,0-1.8.5l-.4-1.2a5.1,5.1,0,0,1,2.5-.6c2.2,0,2.8,1.4,2.8,2.9v2.5c0,.6.1,1.2.1,1.6H62.5l-.2-.7h0a2.5,2.5,0,0,1-2,.9A2.1,2.1,0,0,1,58.1,19.3Zm11.6,23a5.4,5.4,0,0,1-4.1,1.8,4,4,0,0,1-3.8-1.9v7h-3V34.9c0-1.5,0-2.9-.1-4.4h2.6l.2,2.1h.1A4.7,4.7,0,0,1,66,30.2a5,5,0,0,1,4,1.9A7.5,7.5,0,0,1,71.5,37,7.6,7.6,0,0,1,69.7,42.3Zm3.1-21.2H71v-10h1.8ZM84.3,42.3a5.2,5.2,0,0,1-4.1,1.8,4.1,4.1,0,0,1-3.8-1.9v7H73.5V34.9c0-1.5-.1-2.9-.1-4.4h2.5l.2,2.1h.1a5.2,5.2,0,0,1,8.4-.5A7.6,7.6,0,0,1,86.2,37,7.6,7.6,0,0,1,84.3,42.3Zm2-21a2.3,2.3,0,0,1-2.1-1.2h0v1H82.6v-10h1.8v4.1h0a2.6,2.6,0,0,1,2.2-1.1c1.7,0,2.9,1.4,2.9,3.5S87.9,21.3,86.3,21.3Zm14.9,21.2a7.7,7.7,0,0,1-5,1.6,8.5,8.5,0,0,1-4.8-1.2l.7-2.4a8.9,8.9,0,0,0,4.3,1.1,4.7,4.7,0,0,0,2.6-.7,2.6,2.6,0,0,0,.9-2.1,2.9,2.9,0,0,0-.8-1.9,7.9,7.9,0,0,0-2.5-1.4c-3.2-1.2-4.9-2.9-4.9-5.3a4.6,4.6,0,0,1,1.8-3.7A6.9,6.9,0,0,1,98,25.1a10.1,10.1,0,0,1,4.2.8l-.8,2.5a6.8,6.8,0,0,0-3.5-.9,3.7,3.7,0,0,0-2.5.8,2.4,2.4,0,0,0-.7,1.6,2.3,2.3,0,0,0,.9,1.9,8.3,8.3,0,0,0,2.6,1.4,8.8,8.8,0,0,1,3.5,2.2,4.5,4.5,0,0,1,1.2,3.2A5.1,5.1,0,0,1,101.2,42.5Zm10.4-9.8h-3.2v6.5c0,1.6.6,2.4,1.7,2.4h1.3v2.2a5,5,0,0,1-2.3.4,3.4,3.4,0,0,1-2.7-1.1c-.7-.7-1-1.9-1-3.6V32.7h-2V30.5h2V28.1l2.9-.9v3.3h3.2ZM110,21.3a3.4,3.4,0,0,1-3.5-3.5,3.4,3.4,0,0,1,3.6-3.7,3.3,3.3,0,0,1,3.4,3.5A3.4,3.4,0,0,1,110,21.3Zm13.8,20.8a6.6,6.6,0,0,1-4.9,2,6.3,6.3,0,0,1-4.7-1.9,7.5,7.5,0,0,1-1.7-4.9,7.2,7.2,0,0,1,1.8-5.1,6.3,6.3,0,0,1,4.8-2,6,6,0,0,1,4.7,2,6.4,6.4,0,0,1,1.7,4.8A7.7,7.7,0,0,1,123.8,42.1Zm3-27.8h1V13l1.7-.5v1.8h1.6v1.3h-1.6v3c0,.8.2,1.3.9,1.3h.7v1.3l-1.3.2a2,2,0,0,1-1.5-.6,3.1,3.1,0,0,1-.5-1.9V15.6h-1Zm7.6,18.8h-.9a2.6,2.6,0,0,0-2.4,1.2,4.2,4.2,0,0,0-.8,2.6v7h-2.9V34.7c0-1.6,0-2.9-.1-4.2h2.6V33h.1a6,6,0,0,1,1.4-2.1,4.4,4.4,0,0,1,2.2-.7h.7Zm.5-16.1v4.1h-1.8v-10h1.8v4.1h0a2.4,2.4,0,0,1,.9-.8,2,2,0,0,1,1.1-.3c1.2,0,2.4.8,2.4,3v4h-1.7V17.3c0-1-.4-1.8-1.3-1.8a1.5,1.5,0,0,0-1.4,1Zm12.2,20.9h-8.9a3.8,3.8,0,0,0,1.3,3,4.4,4.4,0,0,0,2.9.9,10.5,10.5,0,0,0,3.6-.6l.4,2a9.9,9.9,0,0,1-4.4.8,6.2,6.2,0,0,1-6.7-6.7,7.8,7.8,0,0,1,1.7-5,5.6,5.6,0,0,1,4.6-2.1,5,5,0,0,1,4.4,2.1,7.4,7.4,0,0,1,1.2,4.2C147.2,37,147.1,37.5,147.1,37.9ZM86,15.5a1.7,1.7,0,0,0-1.6,1.2v2A1.6,1.6,0,0,0,86,19.9c1,0,1.7-.8,1.7-2.2S87.1,15.5,86,15.5Zm12.4-.2c-1,0-1.5,1-1.6,1.7h3A1.4,1.4,0,0,0,98.4,15.3Zm11.7.1c-1.3,0-1.8,1.2-1.8,2.3S109,20,110,20s1.7-.9,1.7-2.3S111.2,15.4,110.1,15.4ZM76.7,19.1a1,1,0,0,0,1,1,1.5,1.5,0,0,0,1.4-1V17.8C77.9,17.8,76.7,18,76.7,19.1Zm67.4-3.8a1.7,1.7,0,0,0-1.6,1.7h3C145.5,16.4,145.2,15.3,144.1,15.3Z"/><path class="cls-1" d="M153.4,57.3H7.7A7.8,7.8,0,0,1,0,49.6V7.7A7.8,7.8,0,0,1,7.7,0H153.4a7.7,7.7,0,0,1,7.7,7.7V49.6A7.7,7.7,0,0,1,153.4,57.3ZM7.7,2A5.8,5.8,0,0,0,2,7.7V49.6a5.8,5.8,0,0,0,5.7,5.7H153.4a5.7,5.7,0,0,0,5.7-5.7V7.7A5.7,5.7,0,0,0,153.4,2Z"/></g></g></svg>