<svg xmlns="http://www.w3.org/2000/svg" viewBox="0 0 200 200"><defs><style>.cls-1{fill:#e7e7e7;}</style></defs><g id="Layer_2" data-name="Layer 2"><g id="Capa_1" data-name="Capa 1"><path class="cls-1" d="M100,0A100,100,0,1,0,200,100,100,100,0,0,0,100,0Zm0,163.83c-7.82,0-13.17-6-13.17-13.83,0-8,5.58-13.83,13.17-13.83,8,0,13.17,5.8,13.17,13.83C113.17,157.82,108,163.83,100,163.83ZM105.18,111c-2,6.79-8.26,6.91-10.36,0-2.4-8-11-38.21-11-57.85,0-25.92,32.42-26,32.42,0C116.28,72.92,107.26,103.94,105.18,111Z"/></g></g></svg>