<svg xmlns="http://www.w3.org/2000/svg" viewBox="0 0 22 22.5"><defs><style>.cls-1{fill:none;stroke:#afafaf;stroke-miterlimit:10;}.cls-2{fill:#afafaf;}</style></defs><g id="Layer_2" data-name="Layer 2"><g id="Layer_1-2" data-name="Layer 1"><line class="cls-1" x1="2.5" y1="14.5" x2="2.5"/><line class="cls-1" x1="2.5" y1="22" x2="2.5" y2="19.5"/><path class="cls-2" d="M2.5,15.5A1.5,1.5,0,1,1,1,17a1.5,1.5,0,0,1,1.5-1.5m0-1A2.5,2.5,0,1,0,5,17a2.5,2.5,0,0,0-2.5-2.5Z"/><line class="cls-1" x1="11.5" y1="3.5" x2="11.5"/><line class="cls-1" x1="11.5" y1="22" x2="11.5" y2="8.5"/><path class="cls-2" d="M11.5,4.5A1.5,1.5,0,1,1,10,6a1.5,1.5,0,0,1,1.5-1.5m0-1A2.5,2.5,0,1,0,14,6a2.5,2.5,0,0,0-2.5-2.5Z"/><line class="cls-1" x1="19.5" y1="17.5" x2="19.5"/><path class="cls-2" d="M19.5,18.5A1.5,1.5,0,1,1,18,20a1.5,1.5,0,0,1,1.5-1.5m0-1A2.5,2.5,0,1,0,22,20a2.5,2.5,0,0,0-2.5-2.5Z"/></g></g></svg>