<svg xmlns="http://www.w3.org/2000/svg" viewBox="0 0 168.9 55.3"><defs><style>.cls-1{fill:#58595b;}</style></defs><g id="Layer_2" data-name="Layer 2"><g id="Layer_1-2" data-name="Layer 1"><path class="cls-1" d="M73,11.8a.9.9,0,0,0-.8.4,1.6,1.6,0,0,0-.4,1.2,1.6,1.6,0,0,0,.4,1.2,1.1,1.1,0,0,0,1.8,0,2,2,0,0,0,0-2.4A1.3,1.3,0,0,0,73,11.8Z"/><path class="cls-1" d="M79.9,11.8h-.4v1.5a9.7,9.7,0,0,0,.1,1.7H80c.5,0,.9-.1,1.1-.5a1.5,1.5,0,0,0,.4-1.1,1.7,1.7,0,0,0-.4-1.2A1.5,1.5,0,0,0,79.9,11.8Z"/><path class="cls-1" d="M91.5,11.7H91v1.5h.2c.9,0,1.3-.3,1.3-.8S92.2,11.7,91.5,11.7Z"/><path class="cls-1" d="M87,11.7a17.9,17.9,0,0,1-.6,2h1.3a17.9,17.9,0,0,1-.6-2Z"/><path class="cls-1" d="M53.5,11.7a17.9,17.9,0,0,1-.6,2h1.3c-.4-1.2-.7-1.9-.7-2Z"/><path class="cls-1" d="M68,11.7h-.6a5.7,5.7,0,0,1,.1,1.4h.3c.7,0,1.1-.2,1.1-.8S68.6,11.7,68,11.7Z"/><path class="cls-1" d="M62.9,11.8h-.4v1.5c0,.6.1,1.1.1,1.7H63a1.2,1.2,0,0,0,1.2-.5,2,2,0,0,0,.3-1.1,1.7,1.7,0,0,0-.4-1.2C63.9,11.9,63.5,11.8,62.9,11.8Z"/><path class="cls-1" d="M102.4,11.8a1,1,0,0,0-.9.4,1.6,1.6,0,0,0-.4,1.2,1.6,1.6,0,0,0,.4,1.2,1.4,1.4,0,0,0,.9.5,1.1,1.1,0,0,0,.9-.5,1.6,1.6,0,0,0,.4-1.2,2.1,2.1,0,0,0-.4-1.2A1.2,1.2,0,0,0,102.4,11.8Z"/><path class="cls-1" d="M95.8,11.7h-.6a6.6,6.6,0,0,1,.1,1.5h.2c.9,0,1.3-.3,1.3-.8S96.4,11.7,95.8,11.7Z"/><path class="cls-1" d="M86.5,28.4a3.4,3.4,0,0,0-2.6,1.1,3.9,3.9,0,0,0-1,2.9,4.2,4.2,0,0,0,1,3,3.8,3.8,0,0,0,2.6,1.1,3.6,3.6,0,0,0,2.6-1.1,4.2,4.2,0,0,0,1.1-3,4,4,0,0,0-1.1-2.9A3.3,3.3,0,0,0,86.5,28.4Z"/><path class="cls-1" d="M74.3,28.4a3.3,3.3,0,0,0-2.6,1.1,4,4,0,0,0-1.1,2.9,4.2,4.2,0,0,0,1.1,3,3.6,3.6,0,0,0,2.6,1.1,3.4,3.4,0,0,0,2.5-1.1,3.9,3.9,0,0,0,1.1-3,3.6,3.6,0,0,0-1.1-2.9A3.1,3.1,0,0,0,74.3,28.4Z"/><path class="cls-1" d="M132.5,23.7h-3.6v5.7h3.6a2.6,2.6,0,0,0,2.1-.9,2.9,2.9,0,0,0,0-4A2.9,2.9,0,0,0,132.5,23.7Z"/><path class="cls-1" d="M145.3,33.1a1.9,1.9,0,0,0-.8,1.6,1.4,1.4,0,0,0,.7,1.3,3,3,0,0,0,1.6.5,3.3,3.3,0,0,0,2.4-1,3,3,0,0,0,1.1-2.3,4.1,4.1,0,0,0-2.7-.7A3.5,3.5,0,0,0,145.3,33.1Z"/><path class="cls-1" d="M115.1,28.4a2.7,2.7,0,0,0-2,.7,3.7,3.7,0,0,0-1.2,2h6.5a3.1,3.1,0,0,0-.9-1.9A3.3,3.3,0,0,0,115.1,28.4Z"/><path class="cls-1" d="M98.7,28.4a3.1,3.1,0,0,0-2.5,1.1,4,4,0,0,0-1.1,2.9,4.2,4.2,0,0,0,1.1,3,3.4,3.4,0,0,0,5,0,4.1,4.1,0,0,0,1.1-3,4,4,0,0,0-1.1-2.9A3.1,3.1,0,0,0,98.7,28.4Z"/><path class="cls-1" d="M161.4,0H7.5A7.4,7.4,0,0,0,0,7.5V47.8a7.5,7.5,0,0,0,7.5,7.5H161.4a7.5,7.5,0,0,0,7.5-7.5V7.5A7.4,7.4,0,0,0,161.4,0ZM94.3,11.1h1.8a2,2,0,0,1,1.1.3,1.1,1.1,0,0,1,.5.9,1.5,1.5,0,0,1-.6,1.3,4.2,4.2,0,0,1-1.6.4h-.2v1.7h-1a17.7,17.7,0,0,0,.1-2.4A14.1,14.1,0,0,0,94.3,11.1Zm-8.7,2.3a19.4,19.4,0,0,0,.9-2.3h1.3l.8,2.3a15.7,15.7,0,0,1,.7,2.3H88.2a4.9,4.9,0,0,0-.4-1.3H86.2a6.6,6.6,0,0,0-.3,1.3H84.8Zm-7-2.3h1.5a2.4,2.4,0,0,1,1.8.6,2,2,0,0,1,.6,1.5,2.4,2.4,0,0,1-.7,1.8,2.2,2.2,0,0,1-1.8.8H78.6V11.1Zm-2.3,0h1v4.6h-1a17.7,17.7,0,0,0,.1-2.4A14.1,14.1,0,0,0,76.3,11.1Zm-4.8.6a2,2,0,0,1,1.6-.7,2.1,2.1,0,0,1,1.6.6,2.5,2.5,0,0,1,.6,1.7,2.8,2.8,0,0,1-.6,1.8,2.2,2.2,0,0,1-1.7.7,2,2,0,0,1-1.5-.6,2.2,2.2,0,0,1-.7-1.7A2.4,2.4,0,0,1,71.5,11.7Zm-9.9-.6h1.5a2.4,2.4,0,0,1,1.8.6,2,2,0,0,1,.6,1.5,2.8,2.8,0,0,1-.6,1.8,2.5,2.5,0,0,1-1.8.8H61.6c0-.7.1-1.5.1-2.4S61.6,11.7,61.6,11.1Zm-5,0h1a8.1,8.1,0,0,0,.9,1.5,11.4,11.4,0,0,1,1.1,1.9h0c0-.5-.1-1-.1-1.4v-2h.9a14.1,14.1,0,0,0-.1,2.2,17.7,17.7,0,0,0,.1,2.4h-.9a6.3,6.3,0,0,0-1-1.5,5.7,5.7,0,0,1-1.1-2h-.1a7.1,7.1,0,0,1,.1,1.4v2.1h-.8V11.1Zm-4.5,2.3a19.4,19.4,0,0,0,.9-2.3h1.3a15.7,15.7,0,0,0,.7,2.3l.8,2.3H54.7a4.9,4.9,0,0,0-.4-1.3H52.7a6.6,6.6,0,0,0-.3,1.3H51.3ZM14.7,11.8,36.3,23.9c.3.2.3.3,0,.5l-4.8,4.8c-.1.1-.2.2-.5,0L13.9,11.7l-.2-.2A1.7,1.7,0,0,1,14.7,11.8ZM12.5,47.3a2.2,2.2,0,0,1-.8-1.8V29.6h0V13.8a2.2,2.2,0,0,1,.6-1.7c.1-.2.3-.2.5,0L23.4,22.9l6.9,7c.2.2.2.3,0,.5L13.4,47.2C13.1,47.6,12.8,47.5,12.5,47.3ZM35.6,35.9l-20,11-.3.2L30.9,31.3c.4-.3.5-.3.8,0l4,4.1C35.9,35.6,36,35.7,35.6,35.9ZM44.4,31l-1,.6L37.3,35a.6.6,0,0,1-.7-.1l-4.3-4.4c-.2-.2-.2-.3,0-.6,1.7-1.6,3.4-3.3,5-5a.5.5,0,0,1,.6-.1l6,3.4a1.8,1.8,0,0,1,1.2,1.5A1.6,1.6,0,0,1,44.4,31Zm21.2,5a8.2,8.2,0,0,1-6.1,2.4,8.5,8.5,0,0,1-6-2.4A8.3,8.3,0,0,1,51,29.8a8.2,8.2,0,0,1,2.5-6.1,8.5,8.5,0,0,1,6-2.4,8,8,0,0,1,3.4.7,6.1,6.1,0,0,1,2.6,1.8L64,25.2a5.3,5.3,0,0,0-4.5-1.9,6,6,0,0,0-4.4,1.8,6.1,6.1,0,0,0-1.9,4.7,6.2,6.2,0,0,0,1.9,4.8,6,6,0,0,0,4.4,1.8,6.2,6.2,0,0,0,4.6-1.8,5.1,5.1,0,0,0,1.4-3.4h-6V29.3h8a4.9,4.9,0,0,1,.1,1.2A7.7,7.7,0,0,1,65.6,36Zm1.9-22.1v1.8h-1c0-.7.1-1.5.1-2.4s-.1-1.6-.1-2.2h1.7c1.1,0,1.6.3,1.6,1.1a1.2,1.2,0,0,1-.9,1.2h0c.2,0,.4.2.6.5s.4.9.8,1.7H69.2l-.6-1.5a.9.9,0,0,0-.7-.3ZM78.4,36.7a5.7,5.7,0,0,1-4.1,1.7,5.7,5.7,0,0,1-4.2-1.7,5.9,5.9,0,0,1-1.6-4.3,5.7,5.7,0,0,1,1.6-4.2,5.4,5.4,0,0,1,4.2-1.7,5.3,5.3,0,0,1,4.1,1.7A5.7,5.7,0,0,1,80,32.4,5.9,5.9,0,0,1,78.4,36.7Zm12.3,0a5.7,5.7,0,0,1-4.2,1.7,5.5,5.5,0,0,1-4.1-1.7,6,6,0,0,1-1.7-4.3,5.7,5.7,0,0,1,1.7-4.2,5.2,5.2,0,0,1,4.1-1.7,5.4,5.4,0,0,1,4.2,1.7,5.7,5.7,0,0,1,1.6,4.2A5.9,5.9,0,0,1,90.7,36.7ZM91.3,14H91a11.6,11.6,0,0,0,.1,1.7h-1V11.1h1.7a2.1,2.1,0,0,1,1.2.3,1,1,0,0,1,.4.9,1.5,1.5,0,0,1-.6,1.3A3.3,3.3,0,0,1,91.3,14Zm13,23.5a5.7,5.7,0,0,1-1.7,4.4,5.9,5.9,0,0,1-4.1,1.5,5.3,5.3,0,0,1-3.2-1,5.4,5.4,0,0,1-1.8-2.3l1.9-.8a2.9,2.9,0,0,0,1.2,1.5,3.3,3.3,0,0,0,1.9.6,3.7,3.7,0,0,0,2.8-1,4.1,4.1,0,0,0,1-2.8V36.5h-.1a5.6,5.6,0,0,1-1.6,1.4,5.1,5.1,0,0,1-2.2.5,5.2,5.2,0,0,1-3.8-1.7A5.9,5.9,0,0,1,93,32.4a5.7,5.7,0,0,1,1.6-4.2,4.8,4.8,0,0,1,3.8-1.7,4,4,0,0,1,2.2.5,4.4,4.4,0,0,1,1.6,1.4h.1V26.8h2ZM104,15.1a2.2,2.2,0,0,1-1.7.7,2,2,0,0,1-1.5-.6,2.2,2.2,0,0,1-.7-1.7,2.9,2.9,0,0,1,.7-1.8,2.2,2.2,0,0,1,1.7-.7,2,2,0,0,1,1.5.6,2.6,2.6,0,0,1,.7,1.7A2.9,2.9,0,0,1,104,15.1Zm4.4,23h-2.1V21.6h2.1Zm1.1-22.4h-.9a6.3,6.3,0,0,0-1-1.5,10.8,10.8,0,0,1-1.2-2h0a7.1,7.1,0,0,1,.1,1.4v2.1h-.8V11.1h1l.9,1.5a11.4,11.4,0,0,1,1.1,1.9h0c0-.5-.1-1-.1-1.4v-2h.9a14.1,14.1,0,0,0-.1,2.2A17.7,17.7,0,0,0,109.5,15.7Zm11.1,17.1h-8.9a3.8,3.8,0,0,0,1.2,2.7,3.3,3.3,0,0,0,2.4,1,3,3,0,0,0,3.1-1.9l1.9.7a5.5,5.5,0,0,1-1.8,2.2,5.9,5.9,0,0,1-7.3-.8,6.1,6.1,0,0,1-1.6-4.3,6,6,0,0,1,1.6-4.2,4.8,4.8,0,0,1,3.9-1.7,5.1,5.1,0,0,1,4,1.6,6.1,6.1,0,0,1,1.5,4.3ZM136,30a5.2,5.2,0,0,1-3.6,1.4h-3.5v6.7h-2.1V21.6h5.6A5.2,5.2,0,0,1,136,23a4.6,4.6,0,0,1,0,7Zm5,8.1h-2.1V21.6H141Zm11.3,0h-2V36.5h-.1a4.2,4.2,0,0,1-3.7,1.9,4.4,4.4,0,0,1-3-1,3.7,3.7,0,0,1,.2-5.6,5.6,5.6,0,0,1,3.5-1.1,7.1,7.1,0,0,1,3.1.7v-.3a2.5,2.5,0,0,0-.9-2,3.1,3.1,0,0,0-2.1-.7,2.9,2.9,0,0,0-1.6.4,2.5,2.5,0,0,0-1.1,1.2l-1.9-.8a5.3,5.3,0,0,1,1.5-1.9,4.9,4.9,0,0,1,3.1-.8,5.6,5.6,0,0,1,3.6,1.2,4.7,4.7,0,0,1,1.4,3.6Zm4.6,4.9h-2.2l2.6-5.7-4.6-10.5H155l3.3,8.1h0l3.3-8.1h2.3Z"/></g></g></svg>