<svg xmlns="http://www.w3.org/2000/svg" viewBox="0 0 170.9 57.3"><defs><style>.cls-1{fill:#58595b;}.cls-2{fill:#59585b;}</style></defs><g id="Layer_2" data-name="Layer 2"><g id="Layer_1-2" data-name="Layer 1"><path class="cls-1" d="M162.4,57.3H8.5A8.5,8.5,0,0,1,0,48.8V8.5A8.5,8.5,0,0,1,8.5,0H162.4a8.5,8.5,0,0,1,8.5,8.5V48.8A8.5,8.5,0,0,1,162.4,57.3ZM8.5,2A6.5,6.5,0,0,0,2,8.5V48.8a6.5,6.5,0,0,0,6.5,6.5H162.4a6.5,6.5,0,0,0,6.5-6.5V8.5A6.5,6.5,0,0,0,162.4,2Z"/><path class="cls-2" d="M56.8,16.7H55.7a4.9,4.9,0,0,0-.4-1.3H53.7a6.6,6.6,0,0,0-.3,1.3H52.3l.8-2.3a19.4,19.4,0,0,0,.9-2.3h1.3a15.7,15.7,0,0,0,.7,2.3Zm-1.6-2c-.4-1.2-.7-1.9-.7-2h0a17.9,17.9,0,0,1-.6,2Z"/><path class="cls-2" d="M61.4,16.7h-.9a6.3,6.3,0,0,0-1-1.5,5.7,5.7,0,0,1-1.1-2h-.1a7.1,7.1,0,0,1,.1,1.4v2.1h-.8V12.1h1a8.1,8.1,0,0,0,.9,1.5,11.4,11.4,0,0,1,1.1,1.9h0c0-.5-.1-1-.1-1.4v-2h.9a14.1,14.1,0,0,0-.1,2.2A17.7,17.7,0,0,0,61.4,16.7Z"/><path class="cls-2" d="M66.5,14.2a2.8,2.8,0,0,1-.6,1.8,2.5,2.5,0,0,1-1.8.8H62.6c0-.7.1-1.5.1-2.4s-.1-1.6-.1-2.2h1.5a2.4,2.4,0,0,1,1.8.6A2,2,0,0,1,66.5,14.2Zm-1,.2a1.7,1.7,0,0,0-.4-1.2c-.2-.3-.6-.4-1.2-.4h-.4v1.5c0,.6.1,1.1.1,1.7H64a1.2,1.2,0,0,0,1.2-.5A2,2,0,0,0,65.5,14.4Z"/><path class="cls-2" d="M71.3,16.7H70.2l-.6-1.5a.9.9,0,0,0-.7-.3h-.4v1.8h-1c0-.7.1-1.5.1-2.4s-.1-1.6-.1-2.2h1.7c1.1,0,1.6.3,1.6,1.1a1.2,1.2,0,0,1-.9,1.2h0c.2,0,.4.2.6.5S70.9,15.9,71.3,16.7Zm-1.4-3.3c0-.4-.3-.7-.9-.7h-.6a5.7,5.7,0,0,1,.1,1.4h.3C69.5,14.2,69.9,14,69.9,13.4Z"/><path class="cls-2" d="M76.3,14.3a2.8,2.8,0,0,1-.6,1.8,2.2,2.2,0,0,1-1.7.7,2,2,0,0,1-1.5-.6,2.2,2.2,0,0,1-.7-1.7,2.4,2.4,0,0,1,.7-1.8,2,2,0,0,1,1.6-.7,2.1,2.1,0,0,1,1.6.6A2.5,2.5,0,0,1,76.3,14.3Zm-.9.1a2.1,2.1,0,0,0-.4-1.2,1.3,1.3,0,0,0-1-.4.9.9,0,0,0-.8.4,1.6,1.6,0,0,0-.4,1.2,1.6,1.6,0,0,0,.4,1.2,1.1,1.1,0,0,0,1.8,0A2.1,2.1,0,0,0,75.4,14.4Z"/><path class="cls-2" d="M78.3,16.7h-1a17.7,17.7,0,0,0,.1-2.4,14.1,14.1,0,0,0-.1-2.2h1v4.6Z"/><path class="cls-2" d="M83.5,14.2a2.4,2.4,0,0,1-.7,1.8,2.2,2.2,0,0,1-1.8.8H79.6V12.1h1.5a2.4,2.4,0,0,1,1.8.6A2,2,0,0,1,83.5,14.2Zm-1,.2a1.7,1.7,0,0,0-.4-1.2,1.5,1.5,0,0,0-1.2-.4h-.4v1.5a9.7,9.7,0,0,0,.1,1.7H81c.5,0,.9-.1,1.1-.5A1.5,1.5,0,0,0,82.5,14.4Z"/><path class="cls-2" d="M90.3,16.7H89.2a4.9,4.9,0,0,0-.4-1.3H87.2a6.6,6.6,0,0,0-.3,1.3H85.8l.8-2.3a19.4,19.4,0,0,0,.9-2.3h1.3l.8,2.3A15.7,15.7,0,0,1,90.3,16.7Zm-1.6-2a17.9,17.9,0,0,1-.6-2H88a17.9,17.9,0,0,1-.6,2Z"/><path class="cls-2" d="M94.4,13.3a1.5,1.5,0,0,1-.6,1.3,3.3,3.3,0,0,1-1.5.4H92a11.6,11.6,0,0,0,.1,1.7h-1V12.1h1.7a2.1,2.1,0,0,1,1.2.3A1,1,0,0,1,94.4,13.3Zm-.9.2c0-.5-.3-.8-1-.8H92v1.5h.2C93.1,14.3,93.5,14,93.5,13.5Z"/><path class="cls-2" d="M98.7,13.3a1.5,1.5,0,0,1-.6,1.3,4.2,4.2,0,0,1-1.6.4h-.2v1.7h-1a17.7,17.7,0,0,0,.1-2.4,14.1,14.1,0,0,0-.1-2.2h1.8a2,2,0,0,1,1.1.3A1.1,1.1,0,0,1,98.7,13.3Zm-.9.2c0-.5-.4-.8-1-.8h-.6a6.6,6.6,0,0,1,.1,1.5h.2C97.4,14.3,97.8,14,97.8,13.5Z"/><path class="cls-2" d="M105.7,14.3a2.9,2.9,0,0,1-.7,1.8,2.2,2.2,0,0,1-1.7.7,2,2,0,0,1-1.5-.6,2.2,2.2,0,0,1-.7-1.7,2.9,2.9,0,0,1,.7-1.8,2.2,2.2,0,0,1,1.7-.7,2,2,0,0,1,1.5.6A2.6,2.6,0,0,1,105.7,14.3Zm-1,.1a2.1,2.1,0,0,0-.4-1.2,1.2,1.2,0,0,0-.9-.4,1,1,0,0,0-.9.4,1.6,1.6,0,0,0-.4,1.2,1.6,1.6,0,0,0,.4,1.2,1.4,1.4,0,0,0,.9.5,1.1,1.1,0,0,0,.9-.5A1.6,1.6,0,0,0,104.7,14.4Z"/><path class="cls-2" d="M110.5,16.7h-.9a6.3,6.3,0,0,0-1-1.5,10.8,10.8,0,0,1-1.2-2h0c0,.5.1,1,.1,1.4v2.1h-.8V12.1h1l.9,1.5a11.4,11.4,0,0,1,1.1,1.9h0c0-.5-.1-1-.1-1.4v-2h.9a14.1,14.1,0,0,0-.1,2.2A17.7,17.7,0,0,0,110.5,16.7Z"/><path class="cls-2" d="M68.6,31.5a7.7,7.7,0,0,1-2,5.5,8.2,8.2,0,0,1-6.1,2.4,8.5,8.5,0,0,1-6-2.4A8.3,8.3,0,0,1,52,30.8a8.2,8.2,0,0,1,2.5-6.1,8.5,8.5,0,0,1,6-2.4,8,8,0,0,1,3.4.7,6.1,6.1,0,0,1,2.6,1.8L65,26.2a5.3,5.3,0,0,0-4.5-1.9,6,6,0,0,0-4.4,1.8,6.1,6.1,0,0,0-1.9,4.7,6.2,6.2,0,0,0,1.9,4.8,6,6,0,0,0,4.4,1.8,6.2,6.2,0,0,0,4.6-1.8,5.1,5.1,0,0,0,1.4-3.4h-6V30.3h8A4.9,4.9,0,0,1,68.6,31.5Z"/><path class="cls-2" d="M71.1,29.2a5.4,5.4,0,0,1,4.2-1.7,5.3,5.3,0,0,1,4.1,1.7A5.7,5.7,0,0,1,81,33.4a5.9,5.9,0,0,1-1.6,4.3,5.7,5.7,0,0,1-4.1,1.7,5.7,5.7,0,0,1-4.2-1.7,5.9,5.9,0,0,1-1.6-4.3A5.7,5.7,0,0,1,71.1,29.2Zm1.6,7.2a3.6,3.6,0,0,0,2.6,1.1,3.4,3.4,0,0,0,2.5-1.1,3.9,3.9,0,0,0,1.1-3,3.6,3.6,0,0,0-1.1-2.9,3.1,3.1,0,0,0-2.5-1.1,3.3,3.3,0,0,0-2.6,1.1,4,4,0,0,0-1.1,2.9A4.2,4.2,0,0,0,72.7,36.4Z"/><path class="cls-2" d="M83.4,29.2a5.2,5.2,0,0,1,4.1-1.7,5.4,5.4,0,0,1,4.2,1.7,5.7,5.7,0,0,1,1.6,4.2,5.9,5.9,0,0,1-1.6,4.3,5.7,5.7,0,0,1-4.2,1.7,5.5,5.5,0,0,1-4.1-1.7,6,6,0,0,1-1.7-4.3A5.7,5.7,0,0,1,83.4,29.2Zm1.5,7.2a3.8,3.8,0,0,0,2.6,1.1,3.6,3.6,0,0,0,2.6-1.1,4.2,4.2,0,0,0,1.1-3,4,4,0,0,0-1.1-2.9,3.3,3.3,0,0,0-2.6-1.1,3.4,3.4,0,0,0-2.6,1.1,3.9,3.9,0,0,0-1,2.9A4.2,4.2,0,0,0,84.9,36.4Z"/><path class="cls-2" d="M99.5,44.4a5.3,5.3,0,0,1-3.2-1,5.4,5.4,0,0,1-1.8-2.3l1.9-.8a2.9,2.9,0,0,0,1.2,1.5,3.3,3.3,0,0,0,1.9.6,3.7,3.7,0,0,0,2.8-1,4.1,4.1,0,0,0,1-2.8V37.5h-.1a5.6,5.6,0,0,1-1.6,1.4,5.1,5.1,0,0,1-2.2.5,5.2,5.2,0,0,1-3.8-1.7A5.9,5.9,0,0,1,94,33.4a5.7,5.7,0,0,1,1.6-4.2,4.8,4.8,0,0,1,3.8-1.7,4,4,0,0,1,2.2.5,4.4,4.4,0,0,1,1.6,1.4h.1V27.8h2V38.5a5.7,5.7,0,0,1-1.7,4.4A5.9,5.9,0,0,1,99.5,44.4Zm.2-6.9a3.4,3.4,0,0,0,2.5-1.1,4.1,4.1,0,0,0,1.1-3,4,4,0,0,0-1.1-2.9,3.4,3.4,0,0,0-5,0,4,4,0,0,0-1.1,2.9,4.2,4.2,0,0,0,1.1,3A3.4,3.4,0,0,0,99.7,37.5Z"/><path class="cls-2" d="M109.4,39.1h-2.1V22.6h2.1Z"/><path class="cls-2" d="M116.4,39.4a5.4,5.4,0,0,1-4.2-1.7,6.1,6.1,0,0,1-1.6-4.3,6,6,0,0,1,1.6-4.2,4.8,4.8,0,0,1,3.9-1.7,5.1,5.1,0,0,1,4,1.6,6.1,6.1,0,0,1,1.5,4.3v.4h-8.9a3.8,3.8,0,0,0,1.2,2.7,3.3,3.3,0,0,0,2.4,1,3,3,0,0,0,3.1-1.9l1.9.7a5.5,5.5,0,0,1-1.8,2.2A5.4,5.4,0,0,1,116.4,39.4Zm3-7.3a3.7,3.7,0,0,0-.9-1.9,3.3,3.3,0,0,0-2.4-.8,2.7,2.7,0,0,0-2,.7,3.7,3.7,0,0,0-1.2,2Z"/><path class="cls-2" d="M129.9,39.1h-2.1V22.6h5.6A5.2,5.2,0,0,1,137,24a4.6,4.6,0,0,1,0,7,5.2,5.2,0,0,1-3.6,1.4h-3.5Zm0-8.7h3.6a2.6,2.6,0,0,0,2.1-.9,2.9,2.9,0,0,0,0-4,2.9,2.9,0,0,0-2.1-.8h-3.6Z"/><path class="cls-2" d="M142,39.1h-2.1V22.6H142Z"/><path class="cls-2" d="M147.5,39.4a4.4,4.4,0,0,1-3-1,3.4,3.4,0,0,1-1.2-2.7,3.2,3.2,0,0,1,1.4-2.9,5.6,5.6,0,0,1,3.5-1.1,7.1,7.1,0,0,1,3.1.7v-.3a2.5,2.5,0,0,0-.9-2,3.1,3.1,0,0,0-2.1-.7,2.9,2.9,0,0,0-1.6.4,2.5,2.5,0,0,0-1.1,1.2l-1.9-.8a5.3,5.3,0,0,1,1.5-1.9,4.9,4.9,0,0,1,3.1-.8,5.6,5.6,0,0,1,3.6,1.2,4.7,4.7,0,0,1,1.4,3.6v6.8h-2V37.5h-.1A4.2,4.2,0,0,1,147.5,39.4Zm.3-1.9a3.3,3.3,0,0,0,2.4-1,3,3,0,0,0,1.1-2.3,4.1,4.1,0,0,0-2.7-.7,3.5,3.5,0,0,0-2.3.6,1.9,1.9,0,0,0-.8,1.6,1.4,1.4,0,0,0,.7,1.3A3,3,0,0,0,147.8,37.5Z"/><path class="cls-2" d="M157.9,44h-2.2l2.6-5.7-4.6-10.5H156l3.3,8.1h0l3.3-8.1h2.3Z"/><path class="cls-1" d="M12.7,30.6V14.8a2.2,2.2,0,0,1,.6-1.7c.1-.2.3-.2.5,0L24.4,23.9l6.9,7c.2.2.2.3,0,.5L14.4,48.2c-.3.4-.6.3-.9.1a2.2,2.2,0,0,1-.8-1.8V30.6Z"/><path class="cls-1" d="M14.7,12.5a1.7,1.7,0,0,1,1,.3L37.3,24.9c.3.2.3.3,0,.5l-4.8,4.8c-.1.1-.2.2-.5,0L14.9,12.7Z"/><path class="cls-1" d="M16.3,48.1,31.9,32.3c.4-.3.5-.3.8,0l4,4.1c.2.2.3.3-.1.5l-20,11Z"/><path class="cls-1" d="M46.1,30.7a1.6,1.6,0,0,1-.7,1.3l-1,.6L38.3,36a.6.6,0,0,1-.7-.1l-4.3-4.4c-.2-.2-.2-.3,0-.6,1.7-1.6,3.4-3.3,5-5a.5.5,0,0,1,.6-.1l6,3.4A1.8,1.8,0,0,1,46.1,30.7Z"/></g></g></svg>