<svg xmlns="http://www.w3.org/2000/svg" viewBox="0 0 142.45 142.45"><defs><style>.cls-1{fill:#fff;}</style></defs><g id="Layer_2" data-name="Layer 2"><g id="Capa_1" data-name="Capa 1"><path class="cls-1" d="M142.41,68.9A71.22,71.22,0,1,0,68.9,142.41c.78,0,1.55,0,2.32,0A71.23,71.23,0,0,0,142.41,68.9Zm-30.8,41.44a55.79,55.79,0,0,1-40.39,17.11l-1.84,0A56.23,56.23,0,0,1,71.22,15c.62,0,1.23,0,1.85,0a56.22,56.22,0,0,1,38.54,95.31Z"/><path class="cls-1" d="M94.58,67.09,63,44.44a5.09,5.09,0,0,0-8.06,4.14V93.87A5.09,5.09,0,0,0,63,98L94.58,75.36A5.08,5.08,0,0,0,94.58,67.09Z"/></g></g></svg>