<?xml version="1.0" encoding="utf-8"?>
<!-- Generator: Adobe Illustrator 24.1.2, SVG Export Plug-In . SVG Version: 6.00 Build 0)  -->
<svg version="1.1" id="Capa_1" xmlns="http://www.w3.org/2000/svg" xmlns:xlink="http://www.w3.org/1999/xlink" x="0px" y="0px"
	 viewBox="0 0 512 512" style="enable-background:new 0 0 512 512;" xml:space="preserve">
<style type="text/css">
	.st0{fill:#FFFFFF;}
</style>
<g>
	<g>
		<path class="st0" d="M463.7,162.7L442.5,14.2C440.7,2,425.8-3.1,417,5.7l-30.9,30.9C346.4,12.6,301.3,0,254.9,0
			C115.5,0,3.5,109.2,0,248.5c-0.2,7.6,5.3,14.2,12.9,15.2l59.9,8.6c8.9,1.3,17.2-5.7,17.1-15.1c-1.2-92,73-167.3,165-167.3
			c22.3,0,44.3,4.5,64.6,13.2L289.8,133c-8.7,8.7-3.8,23.7,8.5,25.5l148.5,21.2C456.5,181.1,465.1,172.6,463.7,162.7z"/>
	</g>
</g>
<g>
	<g>
		<path class="st0" d="M499.1,249.4l-59.9-8.6c-7.7-1-17.1,5.7-17.1,16.1c0,91-74,165-165,165c-22.1,0-44-4.5-64.3-13.1l28.8-28.8
			c8.7-8.7,3.8-23.7-8.5-25.5L64.6,333.4c-9.8-1.4-18.4,7-17,17l21.2,148.5c1.7,12.2,16.7,17.2,25.5,8.5l31.6-31.6
			c39.5,23.7,84.6,36.2,131.1,36.2c138.8,0,250.8-108.6,254.9-247.3C512.2,257.1,506.7,250.5,499.1,249.4z"/>
	</g>
</g>
</svg>
