<svg id="svg2832" xmlns="http://www.w3.org/2000/svg" xmlns:xlink="http://www.w3.org/1999/xlink" viewBox="0 0 194.5 41.6"><defs><style>.cls-1{fill:none;}.cls-2{clip-path:url(#clip-path);}.cls-3{fill:#fff;}.cls-4{isolation:isolate;}.cls-5{fill:url(#linear-gradient);}.cls-6{fill:url(#linear-gradient-2);}</style><clipPath id="clip-path"><rect class="cls-1" x="-116.1" y="-85.8" width="526" height="763"/></clipPath><linearGradient id="linear-gradient" x1="-202.27" y1="415.49" x2="-201.27" y2="415.49" gradientTransform="matrix(54.42, 41.46, 41.46, -54.42, -6227.17, 30994.63)" gradientUnits="userSpaceOnUse"><stop offset="0" stop-color="#cbdb2a"/><stop offset="1" stop-color="#7ea831"/></linearGradient><linearGradient id="linear-gradient-2" x1="-202.27" y1="415.49" x2="-201.27" y2="415.49" gradientTransform="matrix(54.42, 41.46, 41.46, -54.42, -6219.55, 30984.63)" xlink:href="#linear-gradient"/></defs><g id="layer1"><g class="cls-2"><g id="g2343"><g id="g2353"><path id="path2355" class="cls-3" d="M69.2,8.9l-6.3.7c.2,2,1.7,2.7,3.3,2.7h4a.9.9,0,0,1,1,1v.8h-5c-2.9,0-5.2-1.9-5.2-5.6a5.1,5.1,0,0,1,5.4-5.4A4.5,4.5,0,0,1,71,6.6a1.8,1.8,0,0,1-1.8,2.3M68,7.5l1.1-.3a.7.7,0,0,0,0-.9,2.9,2.9,0,0,0-2.7-1.6,3.3,3.3,0,0,0-3.5,3.4L68,7.5"/></g><g id="g2357"><path id="path2359" class="cls-3" d="M91.2,3.1c.6,0,1.1.3,1.1.9s-.5.9-1.1.9H86.8c-.9.1-1,1-.9,1.6l.2.4a4,4,0,0,0,1.3.4l3.4.6a2.5,2.5,0,0,1,2.4,2.8c0,2.5-1.5,3.4-3.9,3.4H83.7v-.9c0-.6.4-.9,1.1-.9h4.4c1.7,0,2.1-.5,2.1-1.4s-.2-1.2-1.4-1.4l-3.4-.6c-1.7-.2-2.4-1.1-2.5-2.3s.5-3.5,2.9-3.5Z"/></g><g id="g2361"><path id="path2363" class="cls-3" d="M103.3,7c0-1.9-.5-3.9-3.3-3.9H96c-.6,0-1,.3-1,.9s.4.9,1,.9h3.7c1.3,0,1.8.3,1.8,1.2v.3c-.1.5-.8.7-1.1.8-2.6.6-6.2-.1-6.2,3.7,0,2,1.7,3.3,4.1,3.3.1,0,2.4.1,3.3-1.1h0c.1.6.3.9,1,.9h.7Zm-1.8,3.2c0,1.8-1.1,2.5-2.9,2.5s-2.5-.6-2.5-1.9a1.8,1.8,0,0,1,1.8-1.7l3.6-.5Z"/></g><g id="g2365"><path id="path2367" class="cls-3" d="M117.7,7c0-1.9-.5-3.9-3.4-3.9h-3.9c-.7,0-1.1.3-1.1.9s.4.9,1.1.9h3.7c1.3,0,1.7.3,1.7,1.2v.3c-.1.5-.7.7-1,.8-2.7.6-6.3-.1-6.3,3.7,0,2,1.8,3.3,4.2,3.3,0,0,2.4.1,3.2-1.1h0a.9.9,0,0,0,1,.9h.8Zm-1.9,3.2c0,1.8-1.1,2.5-2.8,2.5s-2.6-.6-2.6-1.9a1.8,1.8,0,0,1,1.8-1.7l3.6-.5Z"/></g><g id="g2369"><path id="path2371" class="cls-3" d="M107.1.1H106a.8.8,0,0,0-.8.9V14.1h1.9Z"/></g><g id="g2373"><path id="path2375" class="cls-3" d="M77.4,12.5c-1.5,0-2-.1-2-1.2V4.9h1.7c.6,0,1-.3,1-.9s-.4-.9-1-.9H75.4V1.3h0V.2H74.2a.8.8,0,0,0-.7.9v2H73c-.6,0-1,.3-1,.9s.4.9,1,.9h.5v6.8c0,2.4,1.6,2.4,3.9,2.4h1.1v-.8c0-.5-.5-.8-1.1-.8"/></g><g id="g2377"><path id="path2379" class="cls-3" d="M124.1,12.5c-1.4,0-2-.1-2-1.2V4.9h1.7c.6,0,1-.3,1-.9s-.4-.9-1-.9h-1.7V1.3h0V.2h-1.2c-.7.1-.7.9-.7.9v2h-.5c-.6,0-1,.3-1,.9s.4.9,1,.9h.5v6.8c0,2.4,1.7,2.4,3.9,2.4h1.1v-.8c0-.5-.4-.8-1.1-.8"/></g><g id="g2381"><path id="path2383" class="cls-3" d="M82,14.1V3.1H80.9c-.7,0-.8.5-.8.9V14.1Z"/></g><g id="g2385"><path id="path2387" class="cls-3" d="M80.8,2.3a1.5,1.5,0,0,0,1-.2c.2-.2.2-.5.2-.9V.2H80.9a.7.7,0,0,0-.8.8V2.3h.7"/></g></g></g><g id="text2391" class="cls-4"><g class="cls-4"><path class="cls-3" d="M78.6,35.6l2.7-14.5h4.2L81,41.5H76.8L73.4,27.8,70.1,41.5H65.9L61.4,21.1h4.2l2.7,14.4,3.4-14.4h3.5Z"/></g><g class="cls-4"><path class="cls-3" d="M87.1,22.4a2,2,0,0,1,.6-1.5,2.1,2.1,0,0,1,1.6-.6,2.4,2.4,0,0,1,1.7.6,2.2,2.2,0,0,1,0,3,2.5,2.5,0,0,1-1.7.6,2.1,2.1,0,0,1-1.6-.6A2,2,0,0,1,87.1,22.4Zm4.3,19.1H87.3V26.3h4.1Z"/></g><g class="cls-4"><path class="cls-3" d="M93.6,33.8a9,9,0,0,1,1.6-5.7A5.2,5.2,0,0,1,99.6,26a4.8,4.8,0,0,1,3.6,1.7V20h4.1V41.5h-3.7l-.2-1.7a4.7,4.7,0,0,1-3.9,1.9,5.2,5.2,0,0,1-4.3-2.1A9.7,9.7,0,0,1,93.6,33.8Zm4.1.3a5.6,5.6,0,0,0,.7,3.2,2.4,2.4,0,0,0,2.2,1.2,2.8,2.8,0,0,0,2.6-1.6v-6a2.6,2.6,0,0,0-2.6-1.6C98.6,29.3,97.7,30.9,97.7,34.1Z"/></g><g class="cls-4"><path class="cls-3" d="M116.9,41.7a7.2,7.2,0,0,1-5.4-2,7.4,7.4,0,0,1-2.1-5.5v-.3a8.8,8.8,0,0,1,.9-4.1,6.8,6.8,0,0,1,2.5-2.8,7.6,7.6,0,0,1,3.7-1,6.5,6.5,0,0,1,4.9,2,7.8,7.8,0,0,1,1.8,5.5v1.7h-9.7a3.6,3.6,0,0,0,3.7,3.3,4.3,4.3,0,0,0,3.6-1.7l2,2.2a5.9,5.9,0,0,1-2.4,2A8.1,8.1,0,0,1,116.9,41.7Zm-.4-12.4a2.8,2.8,0,0,0-2,.8,4.9,4.9,0,0,0-1,2.3h5.7v-.3a2.9,2.9,0,0,0-.8-2.1A2.4,2.4,0,0,0,116.5,29.3Z"/></g><g class="cls-4"><path class="cls-3" d="M133.5,30.1h-1.4c-1.5,0-2.6.5-3,1.5v10H125V26.3h3.8l.2,1.8a3.7,3.7,0,0,1,3.3-2.1l1.3.2Z"/></g><g class="cls-4"><path class="cls-3" d="M157.9,35.6l2.7-14.5h4.2l-4.5,20.4h-4.2l-3.3-13.7-3.3,13.7h-4.3l-4.5-20.4h4.2l2.7,14.4L151,21.1h3.6Z"/></g><g class="cls-4"><path class="cls-3" d="M172.9,41.7a7.2,7.2,0,0,1-5.4-2,7.4,7.4,0,0,1-2.1-5.5v-.3a8.8,8.8,0,0,1,.9-4.1,6.8,6.8,0,0,1,2.5-2.8,7.6,7.6,0,0,1,3.7-1,6.3,6.3,0,0,1,4.9,2,7.8,7.8,0,0,1,1.8,5.5v1.7h-9.7a3.9,3.9,0,0,0,1.2,2.4,3.7,3.7,0,0,0,2.5.9,4.5,4.5,0,0,0,3.7-1.7l1.9,2.2a5.9,5.9,0,0,1-2.4,2A8.1,8.1,0,0,1,172.9,41.7Zm-.4-12.4a2.8,2.8,0,0,0-2,.8,4,4,0,0,0-.9,2.3h5.6v-.3a3.3,3.3,0,0,0-.7-2.1A2.7,2.7,0,0,0,172.5,29.3Z"/></g><g class="cls-4"><path class="cls-3" d="M194.7,34a9,9,0,0,1-1.6,5.7,5,5,0,0,1-4.3,2,4.4,4.4,0,0,1-3.9-1.9l-.2,1.7H181V20h4.1v7.7a4.5,4.5,0,0,1,3.7-1.7,5,5,0,0,1,4.3,2.1c1.1,1.3,1.6,3.2,1.6,5.7Zm-4.1-.3a5.8,5.8,0,0,0-.7-3.3,2.8,2.8,0,0,0-4.8.5v6a2.8,2.8,0,0,0,2.7,1.6,2.5,2.5,0,0,0,2.5-2A9.4,9.4,0,0,0,190.6,33.7Z"/></g></g><g id="g2393"><g id="g2395"><g id="g2401"><g id="g2403"><path id="path2411" class="cls-5" d="M31.3,1.8a1.1,1.1,0,0,0-.9.7h0L29.2,5.7h0L17.9,36.5a2.3,2.3,0,0,1-2.1,1.4H13.9A3.2,3.2,0,0,1,11,36.6h0a5.2,5.2,0,0,1-.9-3.3h0V28.7a8.3,8.3,0,0,0-1-4.5h0A4.4,4.4,0,0,0,5.8,22h0L4,21.7l1.8-.3a4.4,4.4,0,0,0,3.3-2.2h0a8.2,8.2,0,0,0,1-4.4h0V10.2A5.4,5.4,0,0,1,10.9,7h0a3.1,3.1,0,0,1,2.9-1.3h.3V1.8H12.9A8.4,8.4,0,0,0,7.3,3.7h0A7.8,7.8,0,0,0,5,9.7H5v5.1a5.2,5.2,0,0,1-.9,3.5h0c-.7.8-2,1.2-3.9,1.3h0V24c1.9,0,3.2.4,3.9,1.3h0A5,5,0,0,1,5,28.7H5V34a7.6,7.6,0,0,0,2.4,6.1h0a9,9,0,0,0,5.5,1.7h7.4c.2,0,.4-.1.4-.3h0l12.9-35a1.2,1.2,0,0,1,1.1-.8h3.8A3.4,3.4,0,0,1,41.4,7h0a6.2,6.2,0,0,1,.8,3.3h0v4.6c0,3.3,1,5.6,3.1,6.5h0a.8.8,0,0,1,.5.8h0a1,1,0,0,1-.5.8h0c-2,.9-3.1,2.7-3.1,5.8h0v4.7a5.6,5.6,0,0,1-.7,3.2h0a3.3,3.3,0,0,1-2.9,1.2h-7a.9.9,0,0,0-.8.9h0V41a.9.9,0,0,0,.8.8h7.8a8.5,8.5,0,0,0,5.7-1.9h0a7.8,7.8,0,0,0,2.3-6h0V28.8a3.3,3.3,0,0,1,.4-2h0c.4-.4.9-.4,1.7-.6h1a2.1,2.1,0,0,0,1.7-2h0v-.5a2.1,2.1,0,0,0-1.6-2.1h0c-2.1-.4-3.2-2.7-3.2-6.6h0V9.6c0-2.7-.8-4.7-2.5-6.1h0a8.7,8.7,0,0,0-5.5-1.7H31.3Z"/></g></g></g></g><g id="g2413"><g id="g2415"><g id="g2421"><g id="g2423"><path id="path2431" class="cls-6" d="M36.2,15a1.8,1.8,0,0,0,1.7,1.7h0A1.7,1.7,0,0,0,39.6,15h0a1.7,1.7,0,0,0-1.7-1.8h0A1.8,1.8,0,0,0,36.2,15"/></g></g></g></g></g></svg>