<?xml version="1.0" encoding="UTF-8" standalone="no"?>
<svg
   xmlns:dc="http://purl.org/dc/elements/1.1/"
   xmlns:cc="http://creativecommons.org/ns#"
   xmlns:rdf="http://www.w3.org/1999/02/22-rdf-syntax-ns#"
   xmlns:svg="http://www.w3.org/2000/svg"
   xmlns="http://www.w3.org/2000/svg"
   width="13.735402mm"
   height="13.735049mm"
   viewBox="0 0 13.735402 13.735049"
   version="1.1"
   id="svg2999">
  <defs
     id="defs2993" />
  <metadata
     id="metadata2996">
    <rdf:RDF>
      <cc:Work
         rdf:about="">
        <dc:format>image/svg+xml</dc:format>
        <dc:type
           rdf:resource="http://purl.org/dc/dcmitype/StillImage" />
        <dc:title></dc:title>
      </cc:Work>
    </rdf:RDF>
  </metadata>
  <g
     id="layer1"
     transform="translate(-147.35817,-76.177176)">
    <g
       id="g2441"
       transform="matrix(0.35277777,0,0,-0.35277777,153.01637,79.850651)">
      <path
         d="m 0,0 0.582,-10.676 c 0.027,-0.499 0.44,-0.89 0.94,-0.89 h 3.811 c 0.5,0 0.913,0.391 0.94,0.89 L 6.856,0 c 0.03,0.54 -0.4,0.994 -0.941,0.994 H 0.94 C 0.399,0.994 -0.03,0.54 0,0 m 3.428,-12.979 c -1.994,0 -3.611,-1.617 -3.611,-3.611 0,-1.994 1.617,-3.611 3.611,-3.611 1.994,0 3.611,1.617 3.611,3.611 0,1.994 -1.617,3.611 -3.611,3.611 m 19.468,3.925 c 0,-10.754 -8.717,-19.467 -19.468,-19.467 -10.751,0 -19.467,8.713 -19.467,19.467 0,10.747 8.716,19.467 19.467,19.467 10.751,0 19.468,-8.72 19.468,-19.467"
         style="fill:#e7e7e7;fill-opacity:1;fill-rule:nonzero;stroke:none"
         id="path2443" />
    </g>
  </g>
</svg>
